<mxfile host="app.diagrams.net" modified="2021-01-28T07:55:43.085Z" agent="5.0 (Macintosh; Intel Mac OS X 10_14_6) AppleWebKit/537.36 (KHTML, like Gecko) Chrome/88.0.4324.96 Safari/537.36" etag="pKQhWAP00QYW7bUbfhR7" version="14.2.7" type="github">
  <diagram id="YEBLT5E4UBDKSanjakpC" name="Page-1">
    <mxGraphModel dx="541" dy="267" grid="1" gridSize="10" guides="1" tooltips="1" connect="1" arrows="1" fold="1" page="1" pageScale="1" pageWidth="827" pageHeight="1169" math="0" shadow="0">
      <root>
        <mxCell id="0" />
        <mxCell id="1" parent="0" />
        <mxCell id="YELHS7NM6SDTsRkJ9FZ3-6" style="edgeStyle=orthogonalEdgeStyle;rounded=0;orthogonalLoop=1;jettySize=auto;html=1;exitX=0.5;exitY=1;exitDx=0;exitDy=0;entryX=0.5;entryY=0;entryDx=0;entryDy=0;" edge="1" parent="1" source="YELHS7NM6SDTsRkJ9FZ3-1" target="YELHS7NM6SDTsRkJ9FZ3-4">
          <mxGeometry relative="1" as="geometry" />
        </mxCell>
        <mxCell id="YELHS7NM6SDTsRkJ9FZ3-1" value="&lt;font style=&quot;font-size: 14px&quot;&gt;访问主页&lt;/font&gt;" style="rounded=1;whiteSpace=wrap;html=1;" vertex="1" parent="1">
          <mxGeometry x="10" y="60" width="100" height="50" as="geometry" />
        </mxCell>
        <mxCell id="YELHS7NM6SDTsRkJ9FZ3-11" style="edgeStyle=orthogonalEdgeStyle;rounded=0;orthogonalLoop=1;jettySize=auto;html=1;exitX=1;exitY=0.5;exitDx=0;exitDy=0;" edge="1" parent="1" source="YELHS7NM6SDTsRkJ9FZ3-3" target="YELHS7NM6SDTsRkJ9FZ3-8">
          <mxGeometry relative="1" as="geometry" />
        </mxCell>
        <mxCell id="YELHS7NM6SDTsRkJ9FZ3-19" style="edgeStyle=orthogonalEdgeStyle;rounded=0;orthogonalLoop=1;jettySize=auto;html=1;exitX=0.5;exitY=1;exitDx=0;exitDy=0;entryX=0.5;entryY=0;entryDx=0;entryDy=0;" edge="1" parent="1" source="YELHS7NM6SDTsRkJ9FZ3-3" target="YELHS7NM6SDTsRkJ9FZ3-18">
          <mxGeometry relative="1" as="geometry" />
        </mxCell>
        <mxCell id="YELHS7NM6SDTsRkJ9FZ3-3" value="&lt;font style=&quot;font-size: 14px&quot;&gt;访问登录页&lt;/font&gt;" style="rounded=1;whiteSpace=wrap;html=1;" vertex="1" parent="1">
          <mxGeometry x="176" y="155" width="100" height="50" as="geometry" />
        </mxCell>
        <mxCell id="YELHS7NM6SDTsRkJ9FZ3-5" style="edgeStyle=orthogonalEdgeStyle;rounded=0;orthogonalLoop=1;jettySize=auto;html=1;exitX=1;exitY=0.5;exitDx=0;exitDy=0;" edge="1" parent="1" source="YELHS7NM6SDTsRkJ9FZ3-4" target="YELHS7NM6SDTsRkJ9FZ3-3">
          <mxGeometry relative="1" as="geometry" />
        </mxCell>
        <mxCell id="YELHS7NM6SDTsRkJ9FZ3-25" style="edgeStyle=orthogonalEdgeStyle;rounded=0;orthogonalLoop=1;jettySize=auto;html=1;exitX=0.5;exitY=1;exitDx=0;exitDy=0;entryX=0;entryY=0.5;entryDx=0;entryDy=0;" edge="1" parent="1" source="YELHS7NM6SDTsRkJ9FZ3-4" target="YELHS7NM6SDTsRkJ9FZ3-22">
          <mxGeometry relative="1" as="geometry" />
        </mxCell>
        <mxCell id="YELHS7NM6SDTsRkJ9FZ3-4" value="&lt;font style=&quot;font-size: 14px&quot;&gt;已登录？&lt;/font&gt;" style="rhombus;whiteSpace=wrap;html=1;" vertex="1" parent="1">
          <mxGeometry x="20" y="150" width="80" height="60" as="geometry" />
        </mxCell>
        <mxCell id="YELHS7NM6SDTsRkJ9FZ3-7" value="否" style="text;html=1;align=center;verticalAlign=middle;resizable=0;points=[];autosize=1;" vertex="1" parent="1">
          <mxGeometry x="118" y="160" width="30" height="20" as="geometry" />
        </mxCell>
        <mxCell id="YELHS7NM6SDTsRkJ9FZ3-10" style="edgeStyle=orthogonalEdgeStyle;rounded=0;orthogonalLoop=1;jettySize=auto;html=1;exitX=1;exitY=0.5;exitDx=0;exitDy=0;entryX=0;entryY=0.5;entryDx=0;entryDy=0;" edge="1" parent="1" source="YELHS7NM6SDTsRkJ9FZ3-8" target="YELHS7NM6SDTsRkJ9FZ3-9">
          <mxGeometry relative="1" as="geometry" />
        </mxCell>
        <mxCell id="YELHS7NM6SDTsRkJ9FZ3-8" value="&lt;font style=&quot;font-size: 14px&quot;&gt;已注册？&lt;/font&gt;" style="rhombus;whiteSpace=wrap;html=1;" vertex="1" parent="1">
          <mxGeometry x="321" y="150" width="80" height="60" as="geometry" />
        </mxCell>
        <mxCell id="YELHS7NM6SDTsRkJ9FZ3-16" style="edgeStyle=orthogonalEdgeStyle;rounded=0;orthogonalLoop=1;jettySize=auto;html=1;exitX=0.5;exitY=0;exitDx=0;exitDy=0;entryX=0.5;entryY=1;entryDx=0;entryDy=0;" edge="1" parent="1" source="YELHS7NM6SDTsRkJ9FZ3-9" target="YELHS7NM6SDTsRkJ9FZ3-15">
          <mxGeometry relative="1" as="geometry" />
        </mxCell>
        <mxCell id="YELHS7NM6SDTsRkJ9FZ3-9" value="&lt;font style=&quot;font-size: 14px&quot;&gt;访问注册页&lt;/font&gt;" style="rounded=1;whiteSpace=wrap;html=1;" vertex="1" parent="1">
          <mxGeometry x="436" y="155" width="100" height="50" as="geometry" />
        </mxCell>
        <mxCell id="YELHS7NM6SDTsRkJ9FZ3-12" value="否" style="text;html=1;align=center;verticalAlign=middle;resizable=0;points=[];autosize=1;" vertex="1" parent="1">
          <mxGeometry x="398" y="160" width="30" height="20" as="geometry" />
        </mxCell>
        <mxCell id="YELHS7NM6SDTsRkJ9FZ3-13" value="否" style="text;html=1;align=center;verticalAlign=middle;resizable=0;points=[];autosize=1;" vertex="1" parent="1">
          <mxGeometry x="286" y="160" width="30" height="20" as="geometry" />
        </mxCell>
        <mxCell id="YELHS7NM6SDTsRkJ9FZ3-17" style="edgeStyle=orthogonalEdgeStyle;rounded=0;orthogonalLoop=1;jettySize=auto;html=1;exitX=0;exitY=0.5;exitDx=0;exitDy=0;entryX=0.5;entryY=0;entryDx=0;entryDy=0;" edge="1" parent="1" source="YELHS7NM6SDTsRkJ9FZ3-15" target="YELHS7NM6SDTsRkJ9FZ3-3">
          <mxGeometry relative="1" as="geometry" />
        </mxCell>
        <mxCell id="YELHS7NM6SDTsRkJ9FZ3-15" value="&lt;font style=&quot;font-size: 14px&quot;&gt;邮箱前缀、密码、ak、sk&lt;/font&gt;" style="rounded=0;whiteSpace=wrap;html=1;" vertex="1" parent="1">
          <mxGeometry x="430" y="80" width="112" height="50" as="geometry" />
        </mxCell>
        <mxCell id="YELHS7NM6SDTsRkJ9FZ3-20" style="edgeStyle=orthogonalEdgeStyle;rounded=0;orthogonalLoop=1;jettySize=auto;html=1;exitX=1;exitY=0.5;exitDx=0;exitDy=0;entryX=1;entryY=0.75;entryDx=0;entryDy=0;" edge="1" parent="1" source="YELHS7NM6SDTsRkJ9FZ3-18" target="YELHS7NM6SDTsRkJ9FZ3-3">
          <mxGeometry relative="1" as="geometry" />
        </mxCell>
        <mxCell id="YELHS7NM6SDTsRkJ9FZ3-23" style="edgeStyle=orthogonalEdgeStyle;rounded=0;orthogonalLoop=1;jettySize=auto;html=1;exitX=0.5;exitY=1;exitDx=0;exitDy=0;entryX=0.5;entryY=0;entryDx=0;entryDy=0;" edge="1" parent="1" source="YELHS7NM6SDTsRkJ9FZ3-18" target="YELHS7NM6SDTsRkJ9FZ3-22">
          <mxGeometry relative="1" as="geometry" />
        </mxCell>
        <mxCell id="YELHS7NM6SDTsRkJ9FZ3-18" value="&lt;font style=&quot;font-size: 14px&quot;&gt;鉴权成功？&lt;/font&gt;" style="rhombus;whiteSpace=wrap;html=1;" vertex="1" parent="1">
          <mxGeometry x="177" y="230" width="94" height="60" as="geometry" />
        </mxCell>
        <mxCell id="YELHS7NM6SDTsRkJ9FZ3-21" value="否" style="text;html=1;align=center;verticalAlign=middle;resizable=0;points=[];autosize=1;" vertex="1" parent="1">
          <mxGeometry x="265" y="240" width="30" height="20" as="geometry" />
        </mxCell>
        <mxCell id="YELHS7NM6SDTsRkJ9FZ3-31" style="edgeStyle=orthogonalEdgeStyle;rounded=0;orthogonalLoop=1;jettySize=auto;html=1;exitX=0.25;exitY=1;exitDx=0;exitDy=0;entryX=0.5;entryY=0;entryDx=0;entryDy=0;" edge="1" parent="1" source="YELHS7NM6SDTsRkJ9FZ3-22" target="YELHS7NM6SDTsRkJ9FZ3-27">
          <mxGeometry relative="1" as="geometry" />
        </mxCell>
        <mxCell id="YELHS7NM6SDTsRkJ9FZ3-34" style="edgeStyle=orthogonalEdgeStyle;rounded=0;orthogonalLoop=1;jettySize=auto;html=1;exitX=0.5;exitY=1;exitDx=0;exitDy=0;entryX=0.5;entryY=0;entryDx=0;entryDy=0;" edge="1" parent="1" source="YELHS7NM6SDTsRkJ9FZ3-22" target="YELHS7NM6SDTsRkJ9FZ3-30">
          <mxGeometry relative="1" as="geometry" />
        </mxCell>
        <mxCell id="YELHS7NM6SDTsRkJ9FZ3-22" value="&lt;font style=&quot;font-size: 14px&quot;&gt;显示主页&lt;/font&gt;" style="rounded=0;whiteSpace=wrap;html=1;" vertex="1" parent="1">
          <mxGeometry x="175" y="310" width="98" height="40" as="geometry" />
        </mxCell>
        <mxCell id="YELHS7NM6SDTsRkJ9FZ3-24" value="是" style="text;html=1;align=center;verticalAlign=middle;resizable=0;points=[];autosize=1;" vertex="1" parent="1">
          <mxGeometry x="218" y="285" width="30" height="20" as="geometry" />
        </mxCell>
        <mxCell id="YELHS7NM6SDTsRkJ9FZ3-26" value="是" style="text;html=1;align=center;verticalAlign=middle;resizable=0;points=[];autosize=1;" vertex="1" parent="1">
          <mxGeometry x="55" y="210" width="30" height="20" as="geometry" />
        </mxCell>
        <mxCell id="YELHS7NM6SDTsRkJ9FZ3-32" style="edgeStyle=orthogonalEdgeStyle;rounded=0;orthogonalLoop=1;jettySize=auto;html=1;exitX=0.5;exitY=1;exitDx=0;exitDy=0;entryX=0.5;entryY=0;entryDx=0;entryDy=0;" edge="1" parent="1" source="YELHS7NM6SDTsRkJ9FZ3-27" target="YELHS7NM6SDTsRkJ9FZ3-29">
          <mxGeometry relative="1" as="geometry" />
        </mxCell>
        <mxCell id="YELHS7NM6SDTsRkJ9FZ3-27" value="&lt;font style=&quot;font-size: 14px&quot;&gt;新建行业&lt;/font&gt;" style="rounded=0;whiteSpace=wrap;html=1;" vertex="1" parent="1">
          <mxGeometry x="37" y="410" width="90" height="30" as="geometry" />
        </mxCell>
        <mxCell id="YELHS7NM6SDTsRkJ9FZ3-33" style="edgeStyle=orthogonalEdgeStyle;rounded=0;orthogonalLoop=1;jettySize=auto;html=1;exitX=1;exitY=0.5;exitDx=0;exitDy=0;entryX=0;entryY=0.5;entryDx=0;entryDy=0;" edge="1" parent="1" source="YELHS7NM6SDTsRkJ9FZ3-29" target="YELHS7NM6SDTsRkJ9FZ3-35">
          <mxGeometry relative="1" as="geometry" />
        </mxCell>
        <mxCell id="YELHS7NM6SDTsRkJ9FZ3-29" value="&lt;font style=&quot;font-size: 14px&quot;&gt;行业名、基准数据集（选填）、bsku（选填）&lt;/font&gt;" style="rounded=0;whiteSpace=wrap;html=1;" vertex="1" parent="1">
          <mxGeometry x="30" y="465" width="97" height="70" as="geometry" />
        </mxCell>
        <mxCell id="YELHS7NM6SDTsRkJ9FZ3-36" style="edgeStyle=orthogonalEdgeStyle;rounded=0;orthogonalLoop=1;jettySize=auto;html=1;exitX=0.5;exitY=1;exitDx=0;exitDy=0;" edge="1" parent="1" source="YELHS7NM6SDTsRkJ9FZ3-30" target="YELHS7NM6SDTsRkJ9FZ3-35">
          <mxGeometry relative="1" as="geometry" />
        </mxCell>
        <mxCell id="YELHS7NM6SDTsRkJ9FZ3-80" style="edgeStyle=orthogonalEdgeStyle;rounded=0;orthogonalLoop=1;jettySize=auto;html=1;exitX=1;exitY=0.5;exitDx=0;exitDy=0;entryX=0.25;entryY=1;entryDx=0;entryDy=0;" edge="1" parent="1" source="YELHS7NM6SDTsRkJ9FZ3-30" target="YELHS7NM6SDTsRkJ9FZ3-78">
          <mxGeometry relative="1" as="geometry">
            <Array as="points">
              <mxPoint x="269" y="420" />
              <mxPoint x="322" y="420" />
            </Array>
          </mxGeometry>
        </mxCell>
        <mxCell id="YELHS7NM6SDTsRkJ9FZ3-30" value="&lt;font style=&quot;font-size: 14px&quot;&gt;选择已有行业&lt;/font&gt;" style="rounded=0;whiteSpace=wrap;html=1;" vertex="1" parent="1">
          <mxGeometry x="179" y="410" width="90" height="30" as="geometry" />
        </mxCell>
        <mxCell id="YELHS7NM6SDTsRkJ9FZ3-42" style="edgeStyle=orthogonalEdgeStyle;rounded=0;orthogonalLoop=1;jettySize=auto;html=1;exitX=1;exitY=0.75;exitDx=0;exitDy=0;entryX=0;entryY=0.5;entryDx=0;entryDy=0;" edge="1" parent="1" source="YELHS7NM6SDTsRkJ9FZ3-35" target="YELHS7NM6SDTsRkJ9FZ3-38">
          <mxGeometry relative="1" as="geometry" />
        </mxCell>
        <mxCell id="YELHS7NM6SDTsRkJ9FZ3-45" style="edgeStyle=orthogonalEdgeStyle;rounded=0;orthogonalLoop=1;jettySize=auto;html=1;exitX=1;exitY=0.25;exitDx=0;exitDy=0;entryX=0;entryY=0.5;entryDx=0;entryDy=0;" edge="1" parent="1" source="YELHS7NM6SDTsRkJ9FZ3-35" target="YELHS7NM6SDTsRkJ9FZ3-37">
          <mxGeometry relative="1" as="geometry" />
        </mxCell>
        <mxCell id="YELHS7NM6SDTsRkJ9FZ3-48" style="edgeStyle=orthogonalEdgeStyle;rounded=0;orthogonalLoop=1;jettySize=auto;html=1;exitX=1;exitY=0.5;exitDx=0;exitDy=0;entryX=0;entryY=0.5;entryDx=0;entryDy=0;" edge="1" parent="1" source="YELHS7NM6SDTsRkJ9FZ3-35" target="YELHS7NM6SDTsRkJ9FZ3-47">
          <mxGeometry relative="1" as="geometry" />
        </mxCell>
        <mxCell id="YELHS7NM6SDTsRkJ9FZ3-35" value="&lt;font style=&quot;font-size: 14px&quot;&gt;行业详情页&lt;/font&gt;" style="rounded=0;whiteSpace=wrap;html=1;" vertex="1" parent="1">
          <mxGeometry x="179" y="485" width="90" height="30" as="geometry" />
        </mxCell>
        <mxCell id="YELHS7NM6SDTsRkJ9FZ3-52" style="edgeStyle=orthogonalEdgeStyle;rounded=0;orthogonalLoop=1;jettySize=auto;html=1;exitX=1;exitY=0.25;exitDx=0;exitDy=0;entryX=0;entryY=0.5;entryDx=0;entryDy=0;" edge="1" parent="1" source="YELHS7NM6SDTsRkJ9FZ3-37" target="YELHS7NM6SDTsRkJ9FZ3-51">
          <mxGeometry relative="1" as="geometry">
            <Array as="points">
              <mxPoint x="410" y="430" />
              <mxPoint x="435" y="430" />
              <mxPoint x="435" y="346" />
            </Array>
          </mxGeometry>
        </mxCell>
        <mxCell id="YELHS7NM6SDTsRkJ9FZ3-54" style="edgeStyle=orthogonalEdgeStyle;rounded=0;orthogonalLoop=1;jettySize=auto;html=1;exitX=1;exitY=0.75;exitDx=0;exitDy=0;entryX=0;entryY=0.5;entryDx=0;entryDy=0;" edge="1" parent="1" source="YELHS7NM6SDTsRkJ9FZ3-37" target="YELHS7NM6SDTsRkJ9FZ3-49">
          <mxGeometry relative="1" as="geometry">
            <Array as="points">
              <mxPoint x="410" y="460" />
              <mxPoint x="435" y="460" />
              <mxPoint x="435" y="545" />
            </Array>
          </mxGeometry>
        </mxCell>
        <mxCell id="YELHS7NM6SDTsRkJ9FZ3-66" style="edgeStyle=orthogonalEdgeStyle;rounded=0;orthogonalLoop=1;jettySize=auto;html=1;exitX=1;exitY=0.75;exitDx=0;exitDy=0;entryX=0;entryY=0.5;entryDx=0;entryDy=0;" edge="1" parent="1" source="YELHS7NM6SDTsRkJ9FZ3-37" target="YELHS7NM6SDTsRkJ9FZ3-46">
          <mxGeometry relative="1" as="geometry" />
        </mxCell>
        <mxCell id="YELHS7NM6SDTsRkJ9FZ3-67" style="edgeStyle=orthogonalEdgeStyle;rounded=0;orthogonalLoop=1;jettySize=auto;html=1;exitX=1;exitY=0.25;exitDx=0;exitDy=0;entryX=0;entryY=0.5;entryDx=0;entryDy=0;" edge="1" parent="1" source="YELHS7NM6SDTsRkJ9FZ3-37" target="YELHS7NM6SDTsRkJ9FZ3-63">
          <mxGeometry relative="1" as="geometry" />
        </mxCell>
        <mxCell id="YELHS7NM6SDTsRkJ9FZ3-37" value="&lt;font style=&quot;font-size: 14px&quot;&gt;选择训练完成的模型&lt;/font&gt;" style="rounded=0;whiteSpace=wrap;html=1;" vertex="1" parent="1">
          <mxGeometry x="318.5" y="425" width="91.5" height="40" as="geometry" />
        </mxCell>
        <mxCell id="YELHS7NM6SDTsRkJ9FZ3-43" style="edgeStyle=orthogonalEdgeStyle;rounded=0;orthogonalLoop=1;jettySize=auto;html=1;exitX=0.5;exitY=1;exitDx=0;exitDy=0;" edge="1" parent="1" source="YELHS7NM6SDTsRkJ9FZ3-38" target="YELHS7NM6SDTsRkJ9FZ3-39">
          <mxGeometry relative="1" as="geometry" />
        </mxCell>
        <mxCell id="YELHS7NM6SDTsRkJ9FZ3-38" value="&lt;font style=&quot;font-size: 14px&quot;&gt;新建模型训练&lt;/font&gt;" style="rounded=0;whiteSpace=wrap;html=1;" vertex="1" parent="1">
          <mxGeometry x="318.5" y="530" width="91.5" height="30" as="geometry" />
        </mxCell>
        <mxCell id="YELHS7NM6SDTsRkJ9FZ3-44" style="edgeStyle=orthogonalEdgeStyle;rounded=0;orthogonalLoop=1;jettySize=auto;html=1;exitX=0.5;exitY=1;exitDx=0;exitDy=0;entryX=0.5;entryY=0;entryDx=0;entryDy=0;" edge="1" parent="1" source="YELHS7NM6SDTsRkJ9FZ3-39" target="YELHS7NM6SDTsRkJ9FZ3-40">
          <mxGeometry relative="1" as="geometry" />
        </mxCell>
        <mxCell id="YELHS7NM6SDTsRkJ9FZ3-39" value="&lt;font style=&quot;font-size: 14px&quot;&gt;模型选择、参数设定&lt;/font&gt;" style="rounded=0;whiteSpace=wrap;html=1;" vertex="1" parent="1">
          <mxGeometry x="318.5" y="589.5" width="91.5" height="30" as="geometry" />
        </mxCell>
        <mxCell id="YELHS7NM6SDTsRkJ9FZ3-40" value="训练完成后自动预测基准数据集、评估准召、邮件通知" style="rounded=0;whiteSpace=wrap;html=1;" vertex="1" parent="1">
          <mxGeometry x="318.5" y="645" width="91.5" height="70" as="geometry" />
        </mxCell>
        <mxCell id="YELHS7NM6SDTsRkJ9FZ3-58" style="edgeStyle=orthogonalEdgeStyle;rounded=0;orthogonalLoop=1;jettySize=auto;html=1;exitX=1;exitY=0.5;exitDx=0;exitDy=0;entryX=0;entryY=0.5;entryDx=0;entryDy=0;" edge="1" parent="1" source="YELHS7NM6SDTsRkJ9FZ3-46" target="YELHS7NM6SDTsRkJ9FZ3-57">
          <mxGeometry relative="1" as="geometry" />
        </mxCell>
        <mxCell id="YELHS7NM6SDTsRkJ9FZ3-46" value="模型预测" style="rounded=0;whiteSpace=wrap;html=1;" vertex="1" parent="1">
          <mxGeometry x="475" y="465" width="91.5" height="30" as="geometry" />
        </mxCell>
        <mxCell id="YELHS7NM6SDTsRkJ9FZ3-47" value="&lt;font style=&quot;font-size: 14px&quot;&gt;查看历史模型准召图表&lt;/font&gt;" style="rounded=0;whiteSpace=wrap;html=1;" vertex="1" parent="1">
          <mxGeometry x="318.5" y="482" width="91.5" height="35" as="geometry" />
        </mxCell>
        <mxCell id="YELHS7NM6SDTsRkJ9FZ3-49" value="查看准召" style="rounded=0;whiteSpace=wrap;html=1;" vertex="1" parent="1">
          <mxGeometry x="475" y="530" width="91.5" height="30" as="geometry" />
        </mxCell>
        <mxCell id="YELHS7NM6SDTsRkJ9FZ3-61" style="edgeStyle=orthogonalEdgeStyle;rounded=0;orthogonalLoop=1;jettySize=auto;html=1;exitX=1;exitY=0.5;exitDx=0;exitDy=0;entryX=0;entryY=0.5;entryDx=0;entryDy=0;" edge="1" parent="1" source="YELHS7NM6SDTsRkJ9FZ3-51" target="YELHS7NM6SDTsRkJ9FZ3-59">
          <mxGeometry relative="1" as="geometry" />
        </mxCell>
        <mxCell id="YELHS7NM6SDTsRkJ9FZ3-51" value="新建模型蒸馏" style="rounded=0;whiteSpace=wrap;html=1;" vertex="1" parent="1">
          <mxGeometry x="475" y="331" width="91.5" height="30" as="geometry" />
        </mxCell>
        <mxCell id="YELHS7NM6SDTsRkJ9FZ3-70" style="edgeStyle=orthogonalEdgeStyle;rounded=0;orthogonalLoop=1;jettySize=auto;html=1;exitX=0.5;exitY=1;exitDx=0;exitDy=0;entryX=0.5;entryY=0;entryDx=0;entryDy=0;" edge="1" parent="1" source="YELHS7NM6SDTsRkJ9FZ3-57" target="YELHS7NM6SDTsRkJ9FZ3-69">
          <mxGeometry relative="1" as="geometry" />
        </mxCell>
        <mxCell id="YELHS7NM6SDTsRkJ9FZ3-74" style="edgeStyle=orthogonalEdgeStyle;rounded=0;orthogonalLoop=1;jettySize=auto;html=1;exitX=0.5;exitY=0;exitDx=0;exitDy=0;entryX=0.5;entryY=0;entryDx=0;entryDy=0;" edge="1" parent="1" source="YELHS7NM6SDTsRkJ9FZ3-57" target="YELHS7NM6SDTsRkJ9FZ3-72">
          <mxGeometry relative="1" as="geometry" />
        </mxCell>
        <mxCell id="YELHS7NM6SDTsRkJ9FZ3-57" value="是否search kg？" style="rhombus;whiteSpace=wrap;html=1;" vertex="1" parent="1">
          <mxGeometry x="586" y="450" width="90" height="60" as="geometry" />
        </mxCell>
        <mxCell id="YELHS7NM6SDTsRkJ9FZ3-62" style="edgeStyle=orthogonalEdgeStyle;rounded=0;orthogonalLoop=1;jettySize=auto;html=1;exitX=1;exitY=0.5;exitDx=0;exitDy=0;entryX=0;entryY=0.5;entryDx=0;entryDy=0;" edge="1" parent="1" source="YELHS7NM6SDTsRkJ9FZ3-59" target="YELHS7NM6SDTsRkJ9FZ3-60">
          <mxGeometry relative="1" as="geometry" />
        </mxCell>
        <mxCell id="YELHS7NM6SDTsRkJ9FZ3-59" value="蒸馏模型选择、参数设定" style="rounded=0;whiteSpace=wrap;html=1;" vertex="1" parent="1">
          <mxGeometry x="595" y="331" width="91.5" height="30" as="geometry" />
        </mxCell>
        <mxCell id="YELHS7NM6SDTsRkJ9FZ3-60" value="&lt;font style=&quot;font-size: 14px&quot;&gt;蒸馏完成后自动预测基准数据集、评估准召、邮件通知&lt;/font&gt;" style="rounded=0;whiteSpace=wrap;html=1;" vertex="1" parent="1">
          <mxGeometry x="720" y="311" width="91.5" height="70" as="geometry" />
        </mxCell>
        <mxCell id="YELHS7NM6SDTsRkJ9FZ3-68" style="edgeStyle=orthogonalEdgeStyle;rounded=0;orthogonalLoop=1;jettySize=auto;html=1;exitX=0.5;exitY=1;exitDx=0;exitDy=0;entryX=0.5;entryY=0;entryDx=0;entryDy=0;" edge="1" parent="1" source="YELHS7NM6SDTsRkJ9FZ3-63" target="YELHS7NM6SDTsRkJ9FZ3-46">
          <mxGeometry relative="1" as="geometry" />
        </mxCell>
        <mxCell id="YELHS7NM6SDTsRkJ9FZ3-63" value="选择已蒸馏模型" style="rounded=0;whiteSpace=wrap;html=1;" vertex="1" parent="1">
          <mxGeometry x="475" y="390" width="91.5" height="30" as="geometry" />
        </mxCell>
        <mxCell id="YELHS7NM6SDTsRkJ9FZ3-75" style="edgeStyle=orthogonalEdgeStyle;rounded=0;orthogonalLoop=1;jettySize=auto;html=1;exitX=1;exitY=0.5;exitDx=0;exitDy=0;" edge="1" parent="1" source="YELHS7NM6SDTsRkJ9FZ3-69" target="YELHS7NM6SDTsRkJ9FZ3-72">
          <mxGeometry relative="1" as="geometry" />
        </mxCell>
        <mxCell id="YELHS7NM6SDTsRkJ9FZ3-69" value="kg search" style="rounded=0;whiteSpace=wrap;html=1;" vertex="1" parent="1">
          <mxGeometry x="586" y="530" width="91.5" height="30" as="geometry" />
        </mxCell>
        <mxCell id="YELHS7NM6SDTsRkJ9FZ3-72" value="邮件通知预测结果" style="rounded=0;whiteSpace=wrap;html=1;" vertex="1" parent="1">
          <mxGeometry x="725" y="460" width="50" height="40" as="geometry" />
        </mxCell>
        <mxCell id="YELHS7NM6SDTsRkJ9FZ3-76" value="是" style="text;html=1;align=center;verticalAlign=middle;resizable=0;points=[];autosize=1;" vertex="1" parent="1">
          <mxGeometry x="640" y="505" width="30" height="20" as="geometry" />
        </mxCell>
        <mxCell id="YELHS7NM6SDTsRkJ9FZ3-77" value="否" style="text;html=1;align=center;verticalAlign=middle;resizable=0;points=[];autosize=1;" vertex="1" parent="1">
          <mxGeometry x="640" y="430" width="30" height="20" as="geometry" />
        </mxCell>
        <mxCell id="YELHS7NM6SDTsRkJ9FZ3-78" value="&lt;font style=&quot;font-size: 14px&quot;&gt;基准数据集和bsku的上传、删除、下载&lt;/font&gt;" style="rounded=0;whiteSpace=wrap;html=1;" vertex="1" parent="1">
          <mxGeometry x="293" y="350" width="117" height="50" as="geometry" />
        </mxCell>
      </root>
    </mxGraphModel>
  </diagram>
</mxfile>
